<svg xmlns="http://www.w3.org/2000/svg" viewBox="0 0 576 512"><!--!Font Awesome Free 6.5.2 by @fontawesome - https://fontawesome.com License - https://fontawesome.com/license/free Copyright 2024 Fonticons, Inc.--><path fill="#3f8ad9" d="M17.4 160.4L7 352h43.9l5.6-79.8L84.4 352h44.7l25.5-77.4 4.8 77.4H205l-12.8-191.6H146.7L106 277.7 63.7 160.4zm281 0h-47.9V352h47.9s95 .8 94.2-95.8c-.8-94.2-94.2-95.8-94.2-95.8zm-1.2 146.5V204.8s46 4.3 46.8 50.6-46.8 51.5-46.8 51.5zm238.3-74.2a56.2 56.2 0 0 0 8-38.3c-5.3-35.8-55.1-34.3-55.1-34.3h-51.9v191.6H482s87 4.8 87-63.9c0-43.1-33.5-55.1-33.5-55.1zm-51.9-31.9s13.6-1.6 16 9.6c1.4 6.7-4 12-4 12h-12v-21.6zm-.1 109.5l.1-24.9V267h.1s41.6-4.7 41.2 22.4c-.3 25.7-41.4 20.7-41.4 20.7z"/></svg>