<svg xmlns="http://www.w3.org/2000/svg" xmlns:xlink="http://www.w3.org/1999/xlink" viewBox="0 0 709.8271 470.1246"><defs><style>.cls-1,.cls-6,.cls-8,.cls-9{fill:none;}.cls-2{clip-path:url(#clip-path);}.cls-3{fill:#441694;}.cls-4{fill:#441695;}.cls-5{fill:url(#linear-gradient);}.cls-6,.cls-8,.cls-9{stroke:#441694;stroke-linecap:round;stroke-linejoin:round;}.cls-6{stroke-width:8.5039px;}.cls-7{fill:url(#Degradado_sin_nombre_2);}.cls-8{stroke-width:5.6693px;}.cls-9{stroke-width:2.8347px;}.cls-10{fill:#1e0046;}</style><clipPath id="clip-path" transform="translate(-11.9091 -15.6809)"><rect class="cls-1" width="750" height="500"/></clipPath><linearGradient id="linear-gradient" x1="11.9091" y1="263.684" x2="93.9901" y2="263.684" gradientUnits="userSpaceOnUse"><stop offset="0" stop-color="#220051"/><stop offset="1" stop-color="#441695"/></linearGradient><linearGradient id="Degradado_sin_nombre_2" x1="134.9104" y1="82.093" x2="214.3167" y2="82.093" gradientTransform="translate(378.4812 -9.3448)" gradientUnits="userSpaceOnUse"><stop offset="0" stop-color="#441694"/><stop offset="1" stop-color="#3a00e2" stop-opacity="0"/></linearGradient></defs><title>Recurso 5</title><g id="Capa_2" data-name="Capa 2"><g id="BACKGROUND"><g class="cls-2"><circle class="cls-3" cx="635.1412" cy="123.7124" r="3.5537"/><circle class="cls-3" cx="656.3145" cy="107.6186" r="3.5537"/><circle class="cls-3" cx="682.6664" cy="111.2103" r="3.5537"/><path class="cls-3" d="M708.1565,150.5773a3.5537,3.5537,0,1,1,5.0257,0A3.5536,3.5536,0,0,1,708.1565,150.5773Z" transform="translate(-11.9091 -15.6809)"/><circle class="cls-3" cx="695.1685" cy="158.7355" r="3.5537"/><circle class="cls-3" cx="673.9952" cy="174.8293" r="3.5537"/><circle class="cls-3" cx="647.6433" cy="171.2376" r="3.5537"/><circle class="cls-3" cx="631.5494" cy="150.0643" r="3.5537"/><circle class="cls-3" cx="7.4526" cy="108.8131" r="1.4766"/><path class="cls-3" d="M33.5213,124.494a1.4766,1.4766,0,1,1-1.4765-1.4766A1.4766,1.4766,0,0,1,33.5213,124.494Z" transform="translate(-11.9091 -15.6809)"/><circle class="cls-3" cx="32.8187" cy="108.8131" r="1.4766"/><circle class="cls-3" cx="45.5017" cy="108.8131" r="1.4766"/><circle class="cls-3" cx="58.1848" cy="108.8131" r="1.4766"/><circle class="cls-3" cx="70.8678" cy="108.8131" r="1.4766"/><circle class="cls-3" cx="83.5508" cy="108.8131" r="1.4766"/><path class="cls-3" d="M109.62,124.494a1.4766,1.4766,0,1,1-1.4766-1.4766A1.4766,1.4766,0,0,1,109.62,124.494Z" transform="translate(-11.9091 -15.6809)"/><circle class="cls-3" cx="108.9169" cy="108.8131" r="1.4766"/><circle class="cls-3" cx="7.4526" cy="96.8868" r="1.4766"/><path class="cls-3" d="M33.5213,112.5677a1.4766,1.4766,0,1,1-1.4765-1.4766A1.4766,1.4766,0,0,1,33.5213,112.5677Z" transform="translate(-11.9091 -15.6809)"/><circle class="cls-3" cx="32.8187" cy="96.8868" r="1.4766"/><circle class="cls-3" cx="45.5017" cy="96.8868" r="1.4766"/><circle class="cls-3" cx="58.1848" cy="96.8868" r="1.4766"/><circle class="cls-3" cx="70.8678" cy="96.8868" r="1.4766"/><circle class="cls-3" cx="83.5508" cy="96.8868" r="1.4766"/><path class="cls-3" d="M109.62,112.5677a1.4766,1.4766,0,1,1-1.4766-1.4766A1.4766,1.4766,0,0,1,109.62,112.5677Z" transform="translate(-11.9091 -15.6809)"/><circle class="cls-3" cx="108.9169" cy="96.8868" r="1.4766"/><circle class="cls-3" cx="7.4526" cy="84.9605" r="1.4766"/><path class="cls-3" d="M33.5213,100.6414a1.4766,1.4766,0,1,1-1.4765-1.4766A1.4766,1.4766,0,0,1,33.5213,100.6414Z" transform="translate(-11.9091 -15.6809)"/><circle class="cls-3" cx="32.8187" cy="84.9605" r="1.4766"/><circle class="cls-3" cx="45.5017" cy="84.9605" r="1.4766"/><circle class="cls-3" cx="58.1848" cy="84.9605" r="1.4766"/><circle class="cls-3" cx="70.8678" cy="84.9605" r="1.4766"/><circle class="cls-3" cx="83.5508" cy="84.9605" r="1.4766"/><path class="cls-3" d="M109.62,100.6414a1.4766,1.4766,0,1,1-1.4766-1.4766A1.4766,1.4766,0,0,1,109.62,100.6414Z" transform="translate(-11.9091 -15.6809)"/><circle class="cls-3" cx="108.9169" cy="84.9605" r="1.4766"/><path class="cls-3" d="M20.8383,88.7152a1.4766,1.4766,0,1,1-1.4766-1.4766A1.4765,1.4765,0,0,1,20.8383,88.7152Z" transform="translate(-11.9091 -15.6809)"/><path class="cls-3" d="M33.5213,88.7152a1.4766,1.4766,0,1,1-1.4765-1.4766A1.4765,1.4765,0,0,1,33.5213,88.7152Z" transform="translate(-11.9091 -15.6809)"/><path class="cls-3" d="M46.2044,88.7152a1.4766,1.4766,0,1,1-1.4766-1.4766A1.4765,1.4765,0,0,1,46.2044,88.7152Z" transform="translate(-11.9091 -15.6809)"/><path class="cls-3" d="M58.8874,88.7152a1.4766,1.4766,0,1,1-1.4766-1.4766A1.4765,1.4765,0,0,1,58.8874,88.7152Z" transform="translate(-11.9091 -15.6809)"/><path class="cls-3" d="M71.57,88.7152a1.4766,1.4766,0,1,1-1.4766-1.4766A1.4765,1.4765,0,0,1,71.57,88.7152Z" transform="translate(-11.9091 -15.6809)"/><path class="cls-3" d="M84.2535,88.7152a1.4766,1.4766,0,1,1-1.4766-1.4766A1.4765,1.4765,0,0,1,84.2535,88.7152Z" transform="translate(-11.9091 -15.6809)"/><path class="cls-3" d="M96.9365,88.7152A1.4766,1.4766,0,1,1,95.46,87.2386,1.4765,1.4765,0,0,1,96.9365,88.7152Z" transform="translate(-11.9091 -15.6809)"/><path class="cls-3" d="M109.62,88.7152a1.4766,1.4766,0,1,1-1.4766-1.4766A1.4765,1.4765,0,0,1,109.62,88.7152Z" transform="translate(-11.9091 -15.6809)"/><path class="cls-3" d="M122.3026,88.7152a1.4766,1.4766,0,1,1-1.4766-1.4766A1.4765,1.4765,0,0,1,122.3026,88.7152Z" transform="translate(-11.9091 -15.6809)"/><circle class="cls-3" cx="7.4526" cy="61.108" r="1.4766"/><path class="cls-3" d="M33.5213,76.7889a1.4766,1.4766,0,1,1-1.4765-1.4766A1.4766,1.4766,0,0,1,33.5213,76.7889Z" transform="translate(-11.9091 -15.6809)"/><circle class="cls-3" cx="32.8187" cy="61.108" r="1.4766"/><circle class="cls-3" cx="45.5017" cy="61.108" r="1.4766"/><circle class="cls-3" cx="58.1848" cy="61.108" r="1.4766"/><circle class="cls-3" cx="70.8678" cy="61.108" r="1.4766"/><circle class="cls-3" cx="83.5508" cy="61.108" r="1.4766"/><path class="cls-3" d="M109.62,76.7889a1.4766,1.4766,0,1,1-1.4766-1.4766A1.4766,1.4766,0,0,1,109.62,76.7889Z" transform="translate(-11.9091 -15.6809)"/><circle class="cls-3" cx="108.9169" cy="61.108" r="1.4766"/><circle class="cls-3" cx="7.4526" cy="49.1817" r="1.4766"/><path class="cls-3" d="M33.5213,64.8626a1.4766,1.4766,0,1,1-1.4765-1.4766A1.4766,1.4766,0,0,1,33.5213,64.8626Z" transform="translate(-11.9091 -15.6809)"/><circle class="cls-3" cx="32.8187" cy="49.1817" r="1.4766"/><circle class="cls-3" cx="45.5017" cy="49.1817" r="1.4766"/><circle class="cls-3" cx="58.1848" cy="49.1817" r="1.4766"/><circle class="cls-3" cx="70.8678" cy="49.1817" r="1.4766"/><circle class="cls-3" cx="83.5508" cy="49.1817" r="1.4766"/><path class="cls-3" d="M109.62,64.8626a1.4766,1.4766,0,1,1-1.4766-1.4766A1.4766,1.4766,0,0,1,109.62,64.8626Z" transform="translate(-11.9091 -15.6809)"/><circle class="cls-3" cx="108.9169" cy="49.1817" r="1.4766"/><path class="cls-3" d="M20.8383,52.9363A1.4766,1.4766,0,1,1,19.3617,51.46,1.4766,1.4766,0,0,1,20.8383,52.9363Z" transform="translate(-11.9091 -15.6809)"/><path class="cls-3" d="M33.5213,52.9363A1.4766,1.4766,0,1,1,32.0448,51.46,1.4766,1.4766,0,0,1,33.5213,52.9363Z" transform="translate(-11.9091 -15.6809)"/><path class="cls-3" d="M46.2044,52.9363A1.4766,1.4766,0,1,1,44.7278,51.46,1.4766,1.4766,0,0,1,46.2044,52.9363Z" transform="translate(-11.9091 -15.6809)"/><path class="cls-3" d="M58.8874,52.9363A1.4766,1.4766,0,1,1,57.4108,51.46,1.4766,1.4766,0,0,1,58.8874,52.9363Z" transform="translate(-11.9091 -15.6809)"/><path class="cls-3" d="M71.57,52.9363A1.4766,1.4766,0,1,1,70.0938,51.46,1.4766,1.4766,0,0,1,71.57,52.9363Z" transform="translate(-11.9091 -15.6809)"/><path class="cls-3" d="M84.2535,52.9363A1.4766,1.4766,0,1,1,82.7769,51.46,1.4766,1.4766,0,0,1,84.2535,52.9363Z" transform="translate(-11.9091 -15.6809)"/><path class="cls-3" d="M96.9365,52.9363A1.4766,1.4766,0,1,1,95.46,51.46,1.4766,1.4766,0,0,1,96.9365,52.9363Z" transform="translate(-11.9091 -15.6809)"/><path class="cls-3" d="M109.62,52.9363a1.4766,1.4766,0,1,1-1.4766-1.4765A1.4766,1.4766,0,0,1,109.62,52.9363Z" transform="translate(-11.9091 -15.6809)"/><path class="cls-3" d="M122.3026,52.9363A1.4766,1.4766,0,1,1,120.826,51.46,1.4766,1.4766,0,0,1,122.3026,52.9363Z" transform="translate(-11.9091 -15.6809)"/><circle class="cls-3" cx="7.4526" cy="25.3292" r="1.4766"/><path class="cls-3" d="M33.5213,41.01a1.4766,1.4766,0,1,1-1.4765-1.4766A1.4766,1.4766,0,0,1,33.5213,41.01Z" transform="translate(-11.9091 -15.6809)"/><circle class="cls-3" cx="32.8187" cy="25.3292" r="1.4766"/><circle class="cls-3" cx="45.5017" cy="25.3292" r="1.4766"/><circle class="cls-3" cx="58.1848" cy="25.3292" r="1.4766"/><circle class="cls-3" cx="70.8678" cy="25.3292" r="1.4766"/><circle class="cls-3" cx="83.5508" cy="25.3292" r="1.4766"/><path class="cls-3" d="M109.62,41.01a1.4766,1.4766,0,1,1-1.4766-1.4766A1.4766,1.4766,0,0,1,109.62,41.01Z" transform="translate(-11.9091 -15.6809)"/><circle class="cls-3" cx="108.9169" cy="25.3292" r="1.4766"/><circle class="cls-3" cx="7.4526" cy="13.4029" r="1.4766"/><path class="cls-3" d="M33.5213,29.0838a1.4766,1.4766,0,1,1-1.4765-1.4766A1.4766,1.4766,0,0,1,33.5213,29.0838Z" transform="translate(-11.9091 -15.6809)"/><circle class="cls-3" cx="32.8187" cy="13.4029" r="1.4766"/><circle class="cls-3" cx="45.5017" cy="13.4029" r="1.4766"/><circle class="cls-3" cx="58.1848" cy="13.4029" r="1.4766"/><circle class="cls-3" cx="70.8678" cy="13.4029" r="1.4766"/><circle class="cls-3" cx="83.5508" cy="13.4029" r="1.4766"/><path class="cls-3" d="M109.62,29.0838a1.4766,1.4766,0,1,1-1.4766-1.4766A1.4766,1.4766,0,0,1,109.62,29.0838Z" transform="translate(-11.9091 -15.6809)"/><circle class="cls-3" cx="108.9169" cy="13.4029" r="1.4766"/><circle class="cls-3" cx="7.4526" cy="1.4766" r="1.4766"/><path class="cls-3" d="M33.5213,17.1575a1.4766,1.4766,0,1,1-1.4765-1.4766A1.4766,1.4766,0,0,1,33.5213,17.1575Z" transform="translate(-11.9091 -15.6809)"/><circle class="cls-3" cx="32.8187" cy="1.4766" r="1.4766"/><circle class="cls-3" cx="45.5017" cy="1.4766" r="1.4766"/><circle class="cls-3" cx="58.1848" cy="1.4766" r="1.4766"/><circle class="cls-3" cx="70.8678" cy="1.4766" r="1.4766"/><circle class="cls-3" cx="83.5508" cy="1.4766" r="1.4766"/><path class="cls-3" d="M109.62,17.1575a1.4766,1.4766,0,1,1-1.4766-1.4766A1.4766,1.4766,0,0,1,109.62,17.1575Z" transform="translate(-11.9091 -15.6809)"/><circle class="cls-3" cx="108.9169" cy="1.4766" r="1.4766"/><path class="cls-3" d="M355.0973,471.1588a.9885.9885,0,1,1,.124-1.3925A.9886.9886,0,0,1,355.0973,471.1588Z" transform="translate(-11.9091 -15.6809)"/><path class="cls-3" d="M360.5448,477.6718a.9885.9885,0,1,1,.124-1.3925A.9886.9886,0,0,1,360.5448,477.6718Z" transform="translate(-11.9091 -15.6809)"/><path class="cls-3" d="M365.9922,484.1847a.9885.9885,0,1,1,.1241-1.3924A.9884.9884,0,0,1,365.9922,484.1847Z" transform="translate(-11.9091 -15.6809)"/><path class="cls-3" d="M361.2216,466.0363a.9885.9885,0,1,1,.1241-1.3924A.9884.9884,0,0,1,361.2216,466.0363Z" transform="translate(-11.9091 -15.6809)"/><path class="cls-3" d="M366.6691,472.5493a.9885.9885,0,1,1,.1241-1.3924A.9885.9885,0,0,1,366.6691,472.5493Z" transform="translate(-11.9091 -15.6809)"/><path class="cls-3" d="M372.1166,479.0623a.9885.9885,0,1,1,.1241-1.3925A.9885.9885,0,0,1,372.1166,479.0623Z" transform="translate(-11.9091 -15.6809)"/><path class="cls-3" d="M377.5641,485.5753a.9885.9885,0,1,1,.124-1.3925A.9886.9886,0,0,1,377.5641,485.5753Z" transform="translate(-11.9091 -15.6809)"/><path class="cls-3" d="M367.346,460.9139a.9885.9885,0,1,1,.1241-1.3925A.9886.9886,0,0,1,367.346,460.9139Z" transform="translate(-11.9091 -15.6809)"/><path class="cls-3" d="M372.7935,467.4269a.9885.9885,0,1,1,.124-1.3925A.9886.9886,0,0,1,372.7935,467.4269Z" transform="translate(-11.9091 -15.6809)"/><path class="cls-3" d="M378.241,473.94a.9885.9885,0,1,1,.124-1.3925A.9886.9886,0,0,1,378.241,473.94Z" transform="translate(-11.9091 -15.6809)"/><path class="cls-3" d="M383.6885,480.4528a.9885.9885,0,1,1,.124-1.3924A.9885.9885,0,0,1,383.6885,480.4528Z" transform="translate(-11.9091 -15.6809)"/><path class="cls-3" d="M373.47,455.7915a.9885.9885,0,1,1,.124-1.3925A.9886.9886,0,0,1,373.47,455.7915Z" transform="translate(-11.9091 -15.6809)"/><path class="cls-3" d="M378.9179,462.3044a.9885.9885,0,1,1,.124-1.3924A.9885.9885,0,0,1,378.9179,462.3044Z" transform="translate(-11.9091 -15.6809)"/><path class="cls-3" d="M384.3653,468.8174a.9885.9885,0,1,1,.1241-1.3925A.9885.9885,0,0,1,384.3653,468.8174Z" transform="translate(-11.9091 -15.6809)"/><path class="cls-3" d="M389.8128,475.33a.9885.9885,0,1,1,.1241-1.3925A.9885.9885,0,0,1,389.8128,475.33Z" transform="translate(-11.9091 -15.6809)"/><path class="cls-3" d="M379.5947,450.669a.9885.9885,0,1,1,.1241-1.3925A.9885.9885,0,0,1,379.5947,450.669Z" transform="translate(-11.9091 -15.6809)"/><path class="cls-3" d="M385.0422,457.182a.9885.9885,0,1,1,.1241-1.3925A.9885.9885,0,0,1,385.0422,457.182Z" transform="translate(-11.9091 -15.6809)"/><path class="cls-3" d="M390.49,463.695a.9885.9885,0,1,1,.1241-1.3925A.9886.9886,0,0,1,390.49,463.695Z" transform="translate(-11.9091 -15.6809)"/><path class="cls-3" d="M395.9372,470.2079a.9885.9885,0,1,1,.124-1.3924A.9885.9885,0,0,1,395.9372,470.2079Z" transform="translate(-11.9091 -15.6809)"/><path class="cls-3" d="M385.7191,445.5466a.9885.9885,0,1,1,.1241-1.3925A.9886.9886,0,0,1,385.7191,445.5466Z" transform="translate(-11.9091 -15.6809)"/><path class="cls-3" d="M391.1666,452.06a.9885.9885,0,1,1,.124-1.3924A.9885.9885,0,0,1,391.1666,452.06Z" transform="translate(-11.9091 -15.6809)"/><path class="cls-3" d="M396.6141,458.5725a.9885.9885,0,1,1,.124-1.3925A.9886.9886,0,0,1,396.6141,458.5725Z" transform="translate(-11.9091 -15.6809)"/><path class="cls-3" d="M402.0616,465.0855a.9885.9885,0,1,1,.124-1.3925A.9886.9886,0,0,1,402.0616,465.0855Z" transform="translate(-11.9091 -15.6809)"/><path class="cls-3" d="M391.8435,440.4241a.9885.9885,0,1,1,.124-1.3925A.9886.9886,0,0,1,391.8435,440.4241Z" transform="translate(-11.9091 -15.6809)"/><path class="cls-3" d="M397.291,446.9371a.9885.9885,0,1,1,.124-1.3925A.9886.9886,0,0,1,397.291,446.9371Z" transform="translate(-11.9091 -15.6809)"/><path class="cls-3" d="M402.7384,453.45a.9885.9885,0,1,1,.1241-1.3925A.9885.9885,0,0,1,402.7384,453.45Z" transform="translate(-11.9091 -15.6809)"/><path class="cls-3" d="M408.1859,459.963a.9885.9885,0,1,1,.1241-1.3924A.9884.9884,0,0,1,408.1859,459.963Z" transform="translate(-11.9091 -15.6809)"/><path class="cls-3" d="M397.9678,435.3017a.9885.9885,0,1,1,.1241-1.3925A.9885.9885,0,0,1,397.9678,435.3017Z" transform="translate(-11.9091 -15.6809)"/><path class="cls-3" d="M403.4153,441.8146a.9885.9885,0,1,1,.1241-1.3924A.9884.9884,0,0,1,403.4153,441.8146Z" transform="translate(-11.9091 -15.6809)"/><path class="cls-3" d="M408.8628,448.3276a.9885.9885,0,1,1,.1241-1.3925A.9886.9886,0,0,1,408.8628,448.3276Z" transform="translate(-11.9091 -15.6809)"/><path class="cls-3" d="M414.31,454.8406a.9885.9885,0,1,1,.124-1.3925A.9886.9886,0,0,1,414.31,454.8406Z" transform="translate(-11.9091 -15.6809)"/><path class="cls-3" d="M404.0922,430.1792a.9885.9885,0,1,1,.1241-1.3925A.9886.9886,0,0,1,404.0922,430.1792Z" transform="translate(-11.9091 -15.6809)"/><path class="cls-3" d="M409.54,436.6922a.9885.9885,0,1,1,.124-1.3925A.9886.9886,0,0,1,409.54,436.6922Z" transform="translate(-11.9091 -15.6809)"/><path class="cls-3" d="M414.9872,443.2052a.9885.9885,0,1,1,.124-1.3925A.9886.9886,0,0,1,414.9872,443.2052Z" transform="translate(-11.9091 -15.6809)"/><path class="cls-3" d="M420.4347,449.7181a.9885.9885,0,1,1,.124-1.3924A.9885.9885,0,0,1,420.4347,449.7181Z" transform="translate(-11.9091 -15.6809)"/><path class="cls-3" d="M410.2166,425.0568a.9885.9885,0,1,1,.124-1.3925A.9886.9886,0,0,1,410.2166,425.0568Z" transform="translate(-11.9091 -15.6809)"/><path class="cls-3" d="M415.6641,431.57a.9885.9885,0,1,1,.124-1.3924A.9885.9885,0,0,1,415.6641,431.57Z" transform="translate(-11.9091 -15.6809)"/><path class="cls-3" d="M421.1115,438.0827a.9885.9885,0,1,1,.1241-1.3925A.9885.9885,0,0,1,421.1115,438.0827Z" transform="translate(-11.9091 -15.6809)"/><path class="cls-3" d="M426.559,444.5957a.9885.9885,0,1,1,.1241-1.3925A.9885.9885,0,0,1,426.559,444.5957Z" transform="translate(-11.9091 -15.6809)"/><path class="cls-4" d="M721.7362,282.4581A28.7842,28.7842,0,1,1,684.878,238.236Z" transform="translate(-11.9091 -15.6809)"/><path class="cls-5" d="M75.9891,307.93l-4.82-5.79a43.3723,43.3723,0,0,0-55.07-66.07l-4.19-5.03a50.0457,50.0457,0,0,1,64.08,76.89Z" transform="translate(-11.9091 -15.6809)"/><path class="cls-6" d="M288.4267,76.9805A28.5862,28.5862,0,1,1,248,36.5536" transform="translate(-11.9091 -15.6809)"/><path class="cls-6" d="M672.7058,428.2237a18.1512,18.1512,0,0,1,25.67,25.67" transform="translate(-11.9091 -15.6809)"/><circle class="cls-3" cx="547.9976" cy="50.2554" r="36.4631"/><path class="cls-7" d="M592.7979,98.8274a46.5151,46.5151,0,0,1-65.7823-65.7823Z" transform="translate(-11.9091 -15.6809)"/><path class="cls-6" d="M114.5981,359.7979c-6.0473,1.7568-9.8533,7.41-9.6,14.2592.2009,5.4349,2.7221,11.7057.79,16.186-1.8792,4.3574-7.359,5.4433-12.5767,5.4869s-10.86-.5808-15.0365,1.5667a10.3862,10.3862,0,0,0-5.4714,8.4575c-.4038,4.1764,1.1409,8.92.8686,13.1444a11.1629,11.1629,0,0,1-7.715,10.2684c-5.8468,1.8441-13.6532-.5313-19.1387,1.9089a17.6508,17.6508,0,0,0-5.613,4.5714" transform="translate(-11.9091 -15.6809)"/><path class="cls-8" d="M424.0513,65.12a7.3138,7.3138,0,0,0-5.1218,7.6075c.1072,2.9,1.4523,6.2452.4214,8.6355-1.0026,2.3247-3.9261,2.904-6.71,2.9273s-5.794-.31-8.0222.8359A5.5414,5.5414,0,0,0,401.7,89.6382c-.2154,2.2281.6087,4.7587.4634,7.0127a5.9554,5.9554,0,0,1-4.116,5.4783c-3.1194.9839-7.2842-.2834-10.2108,1.0185a9.4152,9.4152,0,0,0-2.9946,2.4389" transform="translate(-11.9091 -15.6809)"/><path class="cls-9" d="M581.21,450.0666a4.8575,4.8575,0,0,0-3.4017,5.0525c.0712,1.9258.9646,4.1477.28,5.7353-.6659,1.544-2.6075,1.9287-4.4564,1.9442s-3.8481-.2058-5.3279.5551a3.68,3.68,0,0,0-1.9387,2.9968c-.1431,1.48.4042,3.1606.3077,4.6575a3.9553,3.9553,0,0,1-2.7337,3.6385c-2.0717.6534-4.8378-.1883-6.7815.6764a6.2544,6.2544,0,0,0-1.9889,1.62" transform="translate(-11.9091 -15.6809)"/><rect class="cls-10" x="562.9046" y="339.093" width="69.0315" height="69.0315" transform="translate(427.2519 -328.6933) rotate(44.9999)"/><path class="cls-4" d="M559.27,308.1275l-65.48,65.48,65.48,65.48,65.48-65.48Zm-46.76,65.48,46.76-46.76,46.76,46.76-46.76,46.76Z" transform="translate(-11.9091 -15.6809)"/></g></g></g></svg>